<svg id="Layer_1" data-name="Layer 1" xmlns="http://www.w3.org/2000/svg" viewBox="0 0 500 500"><defs><style>.cls-1{fill:#fff;}</style></defs><rect class="cls-1" width="500" height="500" rx="82.09"/><path d="M351.6,149.07c2.33,14.89-4,27.35-7.09,33.21-8.59,16.35-37.1,69.62-77.93,141.55l-23.24,41.41a48.83,48.83,0,0,1-23.72,21.17c-13.4,5.47-29.47,4.13-42.1-3.11-22.47-12.86-29.62-41.79-16.42-64.95,9-15.73,17.55-31.68,26-47.68,6.93-13.11,8.36-27.42,8.09-42a7.66,7.66,0,0,0-1.91-4.57,40.58,40.58,0,0,0-4.32,5.19q-20.73,35.2-41.31,70.5c-13.37,22.91-26.46,46-40.12,68.72-18.27,30.41-61.19,31.4-80.47,1.68-10.74-16.56-10.28-33.88-.35-51q31.89-54.94,63.61-110C104,185.64,117.45,162,131.26,138.5c11.38-19.34,31.33-28.23,51.92-23.64,28.32,6.3,44.37,36,34.24,64.33-6.66,18.62-8.87,38-11.5,57.34a23.84,23.84,0,0,0,.23,3.26c2.73-5,4.9-8.92,7-12.85q23.65-43.62,47.31-87.22c5.85-10.74,13.42-18.68,22.94-23.19a47.76,47.76,0,0,1,24-4.17c2.84.2,27.34,2.3,39,22.18A41.61,41.61,0,0,1,351.6,149.07Z"/><path d="M367.79,346.13a45.9,45.9,0,1,1-17.17-35.74,45.32,45.32,0,0,1,7.85,8.05c.37.49.73,1,1.09,1.49a45.74,45.74,0,0,1,7.09,16c0,.17.07.33.1.48A45.87,45.87,0,0,1,367.79,346.13Z"/><path d="M478.85,158.44a45.94,45.94,0,0,1-5.68,22.12l-47,85.91a46.17,46.17,0,0,1-62.69,18.36l-.95-.54a46.19,46.19,0,0,1-7.07-5,43.32,43.32,0,0,1-4.06-3.95s0,0,0,0a46.11,46.11,0,0,1-6.25-53.13l47-85.92a46.2,46.2,0,0,1,86.72,22.2Z"/><path d="M358.47,318.44a45.32,45.32,0,0,0-7.85-8.05,45.85,45.85,0,0,0-9.24-5.76,74.61,74.61,0,0,0,4.29-23.19A73.79,73.79,0,0,0,344,264.3a46,46,0,0,0,7.37,11s0,0,0,0a43.32,43.32,0,0,0,4.06,3.95A73.42,73.42,0,0,0,358.47,318.44Z"/></svg>