<svg id="Layer_1" data-name="Layer 1" xmlns="http://www.w3.org/2000/svg" viewBox="0 0 500 500"><defs><style>.cls-1{fill:#fff;}</style></defs><rect class="cls-1" width="500" height="500" rx="82.09"/><path d="M351.6,135.32c2.33,14.89-4,27.35-7.09,33.21-8.59,16.35-37.1,69.61-77.93,141.55l-23.24,41.4a48.79,48.79,0,0,1-23.72,21.18c-13.4,5.47-29.47,4.13-42.1-3.11-22.47-12.87-29.62-41.79-16.42-64.95,9-15.73,17.55-31.68,26-47.68,6.93-13.11,8.36-27.43,8.09-42a7.66,7.66,0,0,0-1.91-4.57,40.58,40.58,0,0,0-4.32,5.19q-20.73,35.2-41.31,70.5c-13.37,22.91-26.46,46-40.12,68.71-18.27,30.42-61.19,31.41-80.47,1.69-10.74-16.57-10.28-33.88-.35-51q31.89-55,63.61-110c13.62-23.59,27.11-47.25,40.92-70.72,11.38-19.34,31.33-28.23,51.92-23.64,28.32,6.3,44.37,36,34.24,64.33-6.66,18.62-8.87,38-11.5,57.34a23.64,23.64,0,0,0,.23,3.25c2.73-5,4.9-8.91,7-12.85q23.65-43.6,47.31-87.21c5.85-10.75,13.42-18.68,22.94-23.19a47.65,47.65,0,0,1,24-4.17c2.84.2,27.34,2.3,39,22.18A41.61,41.61,0,0,1,351.6,135.32Z"/><path d="M393.23,159.9a41.31,41.31,0,1,1,19.5,17.76c-.51-.22-1-.46-1.51-.7a41.3,41.3,0,0,1-12.62-9.52c-.09-.11-.19-.23-.29-.33A41.47,41.47,0,0,1,393.23,159.9Z"/><path d="M392.44,356.72a41.48,41.48,0,0,1-5.22-20l-.62-88.4a41.7,41.7,0,0,1,41.41-42c.33,0,.66,0,1,0a41.66,41.66,0,0,1,7.79.85,39,39,0,0,1,4.93,1.34s0,0,0,0a41.29,41.29,0,0,1,10.64,5.44,41.84,41.84,0,0,1,9.13,8.84,41.45,41.45,0,0,1,8.47,24.9l.62,88.4a41.71,41.71,0,0,1-78.17,20.53Z"/><path d="M414.63,178.45A41.62,41.62,0,0,0,434.3,181a67.25,67.25,0,0,0,7.62,19.88,65.83,65.83,0,0,0,9.34,12.43,41.86,41.86,0,0,0-10.86-5l0,0a40.05,40.05,0,0,0-5-1.13A66.36,66.36,0,0,0,414.63,178.45Z"/></svg>